<mxfile host="app.diagrams.net" agent="Mozilla/5.0 (Windows NT 10.0; Win64; x64) AppleWebKit/537.36 (KHTML, like Gecko) Chrome/136.0.0.0 Safari/537.36" version="28.2.5">
  <diagram name="Page-1" id="NISjGBsvbTp_gRpJttBt">
    <mxGraphModel dx="679" dy="354" grid="1" gridSize="10" guides="1" tooltips="1" connect="1" arrows="1" fold="1" page="1" pageScale="1" pageWidth="827" pageHeight="1169" math="0" shadow="0">
      <root>
        <mxCell id="0" />
        <mxCell id="1" parent="0" />
        <mxCell id="rqgMfOlDbwQ9i6LX4Ijk-1" value="" style="rounded=0;whiteSpace=wrap;html=1;" vertex="1" parent="1">
          <mxGeometry x="260" y="280" width="330" height="170" as="geometry" />
        </mxCell>
        <mxCell id="rqgMfOlDbwQ9i6LX4Ijk-2" value="ENA+" style="text;html=1;align=center;verticalAlign=middle;whiteSpace=wrap;rounded=0;" vertex="1" parent="1">
          <mxGeometry x="270" y="420" width="60" height="30" as="geometry" />
        </mxCell>
        <mxCell id="rqgMfOlDbwQ9i6LX4Ijk-3" value="ENA-" style="text;html=1;align=center;verticalAlign=middle;whiteSpace=wrap;rounded=0;" vertex="1" parent="1">
          <mxGeometry x="320" y="420" width="60" height="30" as="geometry" />
        </mxCell>
        <mxCell id="rqgMfOlDbwQ9i6LX4Ijk-4" value="&lt;h1 style=&quot;margin-top: 0px;&quot;&gt;&lt;font style=&quot;font-size: 19px;&quot;&gt;Microstep Driver&lt;/font&gt;&lt;/h1&gt;" style="text;html=1;whiteSpace=wrap;overflow=hidden;rounded=0;" vertex="1" parent="1">
          <mxGeometry x="345" y="350" width="160" height="40" as="geometry" />
        </mxCell>
        <mxCell id="rqgMfOlDbwQ9i6LX4Ijk-7" value="DIR+" style="text;html=1;align=center;verticalAlign=middle;whiteSpace=wrap;rounded=0;" vertex="1" parent="1">
          <mxGeometry x="370" y="420" width="60" height="30" as="geometry" />
        </mxCell>
        <mxCell id="rqgMfOlDbwQ9i6LX4Ijk-8" value="DIR-" style="text;html=1;align=center;verticalAlign=middle;whiteSpace=wrap;rounded=0;" vertex="1" parent="1">
          <mxGeometry x="420" y="420" width="60" height="30" as="geometry" />
        </mxCell>
        <mxCell id="rqgMfOlDbwQ9i6LX4Ijk-9" value="PUL+" style="text;html=1;align=center;verticalAlign=middle;whiteSpace=wrap;rounded=0;" vertex="1" parent="1">
          <mxGeometry x="470" y="420" width="60" height="30" as="geometry" />
        </mxCell>
        <mxCell id="rqgMfOlDbwQ9i6LX4Ijk-10" value="PUL-" style="text;html=1;align=center;verticalAlign=middle;whiteSpace=wrap;rounded=0;" vertex="1" parent="1">
          <mxGeometry x="520" y="420" width="60" height="30" as="geometry" />
        </mxCell>
      </root>
    </mxGraphModel>
  </diagram>
</mxfile>
